<svg width="1516" height="623" viewBox="0 0 1516 623" fill="none" xmlns="http://www.w3.org/2000/svg">
<rect x="36.1044" y="190.503" width="1485" height="51" transform="rotate(7.39248 36.1044 190.503)" fill="url(#paint0_linear_43_1689)"/>
<path d="M63.7208 216.387L75.7162 217.944L75.1138 222.585L63.1184 221.028L63.7208 216.387ZM62.3652 230.187L56.5817 229.436L59.8254 204.446L78.711 206.897L78.1086 211.538L65.0065 209.838L62.3652 230.187ZM79.3827 232.396L82.6263 207.406L88.4098 208.156L85.1661 233.147L79.3827 232.396ZM91.0969 233.916L94.3405 208.926L99.1244 209.547L111.533 229.454L109.213 229.153L111.548 211.16L117.26 211.901L114.017 236.891L109.268 236.275L96.8239 216.364L99.1444 216.665L96.809 234.658L91.0969 233.916ZM131.833 239.639C129.906 239.389 128.149 238.847 126.563 238.012C125.004 237.156 123.694 236.066 122.631 234.742C121.569 233.418 120.794 231.926 120.308 230.266C119.845 228.609 119.736 226.84 119.98 224.96C120.224 223.079 120.781 221.397 121.652 219.913C122.546 218.432 123.676 217.187 125.041 216.178C126.43 215.172 127.985 214.467 129.708 214.061C131.434 213.632 133.272 213.544 135.224 213.797C137.39 214.078 139.292 214.712 140.93 215.699C142.596 216.666 143.929 217.952 144.931 219.558L140.773 222.504C140.043 221.417 139.185 220.567 138.2 219.955C137.218 219.319 136.108 218.921 134.87 218.761C133.704 218.609 132.608 218.661 131.583 218.915C130.558 219.169 129.642 219.607 128.835 220.228C128.028 220.849 127.359 221.622 126.828 222.545C126.321 223.471 125.99 224.53 125.835 225.72C125.681 226.91 125.731 228.017 125.985 229.042C126.263 230.071 126.712 230.988 127.334 231.795C127.955 232.602 128.729 233.259 129.655 233.766C130.582 234.274 131.628 234.603 132.794 234.754C134.032 234.915 135.205 234.825 136.314 234.485C137.426 234.121 138.475 233.495 139.462 232.607L142.73 236.516C141.352 237.813 139.732 238.729 137.872 239.262C136.036 239.798 134.023 239.924 131.833 239.639ZM166.492 218.291L172.275 219.042L169.032 244.032L163.248 243.281L166.492 218.291ZM151.895 241.808L146.112 241.057L149.356 216.067L155.139 216.817L151.895 241.808ZM165.007 233.091L152.797 231.506L153.432 226.615L165.641 228.2L165.007 233.091ZM221.139 250.795L224.383 225.805L235.2 227.209C237.437 227.499 239.317 228.119 240.84 229.066C242.365 229.99 243.481 231.188 244.185 232.659C244.89 234.13 245.12 235.805 244.876 237.686C244.635 239.542 243.986 241.091 242.929 242.334C241.873 243.576 240.487 244.461 238.773 244.989C237.062 245.493 235.088 245.6 232.85 245.309L225.246 244.322L228.155 242.05L226.922 251.546L221.139 250.795ZM228.072 242.692L225.858 239.61L233.141 240.555C234.926 240.787 236.308 240.579 237.288 239.932C238.267 239.284 238.845 238.282 239.021 236.926C239.2 235.545 238.899 234.417 238.117 233.541C237.335 232.665 236.052 232.111 234.267 231.88L226.984 230.934L229.911 228.519L228.072 242.692ZM254.194 239.912L266.225 241.473L265.642 245.971L253.611 244.41L254.194 239.912ZM253.288 250.249L266.89 252.014L266.288 256.655L246.938 254.144L250.182 229.154L269.067 231.605L268.465 236.246L255.327 234.541L253.288 250.249ZM267.605 256.826L281.987 233.282L287.699 234.023L295.63 260.464L289.561 259.676L283.285 236.427L285.57 236.724L273.531 257.596L267.605 256.826ZM273.869 252.194L275.974 248.002L288.827 249.671L289.828 254.266L273.869 252.194ZM309.778 262.736C307.85 262.486 306.094 261.943 304.508 261.108C302.949 260.252 301.638 259.163 300.576 257.839C299.514 256.515 298.739 255.023 298.253 253.363C297.79 251.705 297.681 249.936 297.925 248.056C298.169 246.176 298.726 244.494 299.597 243.009C300.491 241.528 301.62 240.283 302.986 239.275C304.375 238.269 305.93 237.563 307.653 237.158C309.378 236.728 311.217 236.64 313.169 236.893C315.335 237.175 317.237 237.809 318.875 238.796C320.541 239.762 321.874 241.049 322.876 242.655L318.718 245.6C317.988 244.513 317.13 243.664 316.145 243.052C315.162 242.416 314.052 242.018 312.815 241.857C311.649 241.706 310.553 241.757 309.528 242.011C308.502 242.266 307.586 242.703 306.78 243.325C305.973 243.946 305.304 244.718 304.773 245.642C304.265 246.568 303.934 247.626 303.78 248.816C303.626 250.006 303.675 251.114 303.93 252.139C304.207 253.167 304.657 254.085 305.278 254.892C305.9 255.698 306.674 256.355 307.6 256.863C308.526 257.37 309.573 257.7 310.739 257.851C311.977 258.012 313.15 257.922 314.259 257.582C315.371 257.218 316.42 256.592 317.407 255.703L320.675 259.613C319.296 260.91 317.677 261.825 315.817 262.358C313.981 262.894 311.968 263.02 309.778 262.736ZM344.437 241.388L350.22 242.138L346.977 267.129L341.193 266.378L344.437 241.388ZM329.84 264.904L324.057 264.154L327.3 239.163L333.084 239.914L329.84 264.904ZM342.951 256.187L330.742 254.603L331.377 249.712L343.586 251.296L342.951 256.187ZM406.223 260.842L418.218 262.399L417.616 267.04L405.62 265.483L406.223 260.842ZM404.867 274.643L399.084 273.892L402.327 248.902L421.213 251.353L420.611 255.994L407.508 254.293L404.867 274.643ZM421.885 276.851L425.128 251.861L430.912 252.612L427.668 277.602L421.885 276.851ZM433.599 278.372L436.843 253.381L441.626 254.002L454.035 273.909L451.715 273.608L454.05 255.615L459.762 256.356L456.519 281.347L451.77 280.73L439.326 260.819L441.646 261.12L439.311 279.113L433.599 278.372ZM474.335 284.095C472.407 283.845 470.651 283.302 469.065 282.467C467.506 281.611 466.196 280.521 465.133 279.198C464.071 277.874 463.296 276.382 462.81 274.721C462.347 273.064 462.238 271.295 462.482 269.415C462.726 267.535 463.283 265.853 464.154 264.368C465.048 262.887 466.177 261.642 467.543 260.633C468.932 259.628 470.487 258.922 472.21 258.517C473.936 258.087 475.774 257.999 477.726 258.252C479.892 258.533 481.794 259.168 483.432 260.155C485.098 261.121 486.431 262.407 487.433 264.014L483.275 266.959C482.545 265.872 481.687 265.023 480.702 264.411C479.72 263.775 478.61 263.377 477.372 263.216C476.206 263.065 475.11 263.116 474.085 263.37C473.06 263.624 472.144 264.062 471.337 264.683C470.53 265.305 469.861 266.077 469.33 267C468.823 267.927 468.492 268.985 468.337 270.175C468.183 271.365 468.233 272.473 468.487 273.498C468.765 274.526 469.214 275.444 469.836 276.25C470.457 277.057 471.231 277.714 472.157 278.222C473.084 278.729 474.13 279.059 475.296 279.21C476.534 279.371 477.707 279.281 478.816 278.941C479.928 278.577 480.977 277.951 481.964 277.062L485.232 280.971C483.854 282.269 482.234 283.184 480.374 283.717C478.538 284.253 476.525 284.379 474.335 284.095ZM508.994 262.746L514.777 263.497L511.534 288.487L505.75 287.737L508.994 262.746ZM494.397 286.263L488.614 285.513L491.858 260.522L497.641 261.273L494.397 286.263ZM507.509 277.546L495.299 275.962L495.934 271.071L508.143 272.655L507.509 277.546ZM563.641 295.251L566.885 270.26L577.702 271.664C579.939 271.955 581.819 272.574 583.342 273.522C584.867 274.446 585.982 275.643 586.687 277.114C587.392 278.585 587.622 280.261 587.378 282.141C587.137 283.997 586.488 285.547 585.431 286.789C584.375 288.031 582.989 288.916 581.275 289.444C579.564 289.948 577.59 290.055 575.352 289.765L567.748 288.778L570.657 286.505L569.424 296.001L563.641 295.251ZM570.574 287.148L568.36 284.065L575.643 285.01C577.428 285.242 578.81 285.034 579.79 284.387C580.769 283.74 581.347 282.738 581.523 281.381C581.702 280.001 581.401 278.872 580.619 277.997C579.837 277.121 578.554 276.567 576.769 276.335L569.486 275.39L572.413 272.975L570.574 287.148ZM596.696 284.367L608.727 285.929L608.144 290.427L596.113 288.865L596.696 284.367ZM595.79 294.704L609.392 296.47L608.79 301.111L589.44 298.599L592.684 273.609L611.569 276.06L610.967 280.701L597.829 278.996L595.79 294.704ZM610.107 301.282L624.489 277.737L630.201 278.479L638.132 304.919L632.063 304.132L625.787 280.882L628.072 281.179L616.033 302.051L610.107 301.282ZM616.371 296.65L618.476 292.458L631.329 294.126L632.33 298.721L616.371 296.65ZM652.28 307.191C650.352 306.941 648.596 306.399 647.01 305.563C645.451 304.708 644.14 303.618 643.078 302.294C642.016 300.97 641.241 299.478 640.755 297.818C640.292 296.161 640.183 294.392 640.427 292.512C640.671 290.631 641.228 288.949 642.099 287.465C642.993 285.984 644.122 284.739 645.488 283.73C646.877 282.724 648.432 282.019 650.155 281.613C651.88 281.184 653.719 281.096 655.671 281.349C657.837 281.63 659.739 282.264 661.377 283.251C663.043 284.218 664.376 285.504 665.378 287.11L661.22 290.056C660.49 288.969 659.632 288.119 658.647 287.507C657.664 286.871 656.554 286.473 655.317 286.313C654.151 286.161 653.055 286.213 652.03 286.467C651.004 286.721 650.088 287.159 649.282 287.78C648.475 288.401 647.806 289.174 647.275 290.097C646.767 291.023 646.436 292.082 646.282 293.272C646.128 294.462 646.177 295.569 646.432 296.594C646.709 297.623 647.159 298.54 647.78 299.347C648.402 300.154 649.176 300.811 650.102 301.318C651.028 301.826 652.075 302.155 653.241 302.306C654.479 302.467 655.652 302.377 656.761 302.037C657.873 301.673 658.922 301.047 659.909 300.159L663.177 304.068C661.798 305.365 660.179 306.281 658.319 306.814C656.483 307.35 654.47 307.476 652.28 307.191ZM686.939 285.843L692.722 286.594L689.479 311.584L683.695 310.833L686.939 285.843ZM672.342 309.36L666.559 308.609L669.802 283.619L675.586 284.369L672.342 309.36ZM685.453 300.643L673.244 299.058L673.879 294.167L686.088 295.752L685.453 300.643ZM748.725 305.298L760.72 306.855L760.118 311.496L748.122 309.939L748.725 305.298ZM747.369 319.098L741.586 318.347L744.829 293.357L763.715 295.808L763.113 300.449L750.01 298.749L747.369 319.098ZM764.387 321.307L767.63 296.316L773.414 297.067L770.17 322.057L764.387 321.307ZM776.101 322.827L779.345 297.837L784.128 298.458L796.537 318.365L794.217 318.063L796.552 300.07L802.264 300.812L799.021 325.802L794.272 325.186L781.828 305.274L784.148 305.576L781.813 323.569L776.101 322.827ZM816.837 328.55C814.909 328.3 813.153 327.757 811.567 326.922C810.008 326.067 808.698 324.977 807.635 323.653C806.573 322.329 805.798 320.837 805.312 319.177C804.849 317.519 804.74 315.751 804.984 313.87C805.228 311.99 805.785 310.308 806.656 308.824C807.55 307.342 808.679 306.097 810.045 305.089C811.434 304.083 812.989 303.378 814.712 302.972C816.438 302.542 818.276 302.454 820.228 302.708C822.394 302.989 824.296 303.623 825.934 304.61C827.6 305.576 828.933 306.863 829.935 308.469L825.777 311.414C825.047 310.327 824.189 309.478 823.204 308.866C822.222 308.23 821.112 307.832 819.874 307.671C818.708 307.52 817.612 307.571 816.587 307.826C815.562 308.08 814.646 308.518 813.839 309.139C813.032 309.76 812.363 310.533 811.832 311.456C811.325 312.382 810.994 313.44 810.839 314.63C810.685 315.82 810.734 316.928 810.989 317.953C811.267 318.982 811.716 319.899 812.338 320.706C812.959 321.513 813.733 322.17 814.659 322.677C815.586 323.185 816.632 323.514 817.798 323.665C819.036 323.826 820.209 323.736 821.318 323.396C822.43 323.032 823.479 322.406 824.466 321.518L827.734 325.427C826.356 326.724 824.736 327.639 822.876 328.172C821.04 328.709 819.027 328.834 816.837 328.55ZM851.496 307.202L857.279 307.952L854.036 332.943L848.252 332.192L851.496 307.202ZM836.899 330.719L831.116 329.968L834.36 304.978L840.143 305.728L836.899 330.719ZM850.01 322.002L837.801 320.417L838.436 315.526L850.645 317.111L850.01 322.002ZM906.143 339.706L909.386 314.716L920.204 316.12C922.441 316.41 924.321 317.029 925.844 317.977C927.369 318.901 928.484 320.099 929.189 321.57C929.894 323.041 930.124 324.716 929.88 326.596C929.639 328.453 928.99 330.002 927.933 331.245C926.877 332.487 925.491 333.372 923.777 333.9C922.066 334.404 920.092 334.51 917.854 334.22L910.25 333.233L913.159 330.96L911.926 340.457L906.143 339.706ZM913.076 331.603L910.862 328.521L918.145 329.466C919.93 329.697 921.312 329.49 922.292 328.842C923.271 328.195 923.849 327.193 924.025 325.836C924.204 324.456 923.903 323.328 923.121 322.452C922.339 321.576 921.056 321.022 919.271 320.791L911.988 319.845L914.915 317.43L913.076 331.603ZM939.198 328.822L951.229 330.384L950.646 334.882L938.614 333.321L939.198 328.822ZM938.292 339.16L951.894 340.925L951.292 345.566L931.942 343.055L935.186 318.064L954.071 320.516L953.469 325.157L940.331 323.452L938.292 339.16ZM952.609 345.737L966.991 322.193L972.703 322.934L980.634 349.375L974.565 348.587L968.289 325.338L970.574 325.634L958.535 346.506L952.609 345.737ZM958.873 341.105L960.978 336.913L973.831 338.581L974.832 343.176L958.873 341.105ZM994.782 351.647C992.854 351.397 991.098 350.854 989.512 350.019C987.953 349.163 986.642 348.073 985.58 346.75C984.517 345.426 983.743 343.934 983.257 342.273C982.794 340.616 982.685 338.847 982.929 336.967C983.173 335.087 983.73 333.404 984.601 331.92C985.495 330.439 986.624 329.194 987.99 328.185C989.378 327.18 990.934 326.474 992.657 326.068C994.382 325.639 996.221 325.551 998.173 325.804C1000.34 326.085 1002.24 326.719 1003.88 327.707C1005.54 328.673 1006.88 329.959 1007.88 331.566L1003.72 334.511C1002.99 333.424 1002.13 332.574 1001.15 331.963C1000.17 331.327 999.056 330.929 997.819 330.768C996.653 330.617 995.557 330.668 994.532 330.922C993.506 331.176 992.59 331.614 991.784 332.235C990.977 332.857 990.308 333.629 989.777 334.552C989.269 335.479 988.938 336.537 988.784 337.727C988.629 338.917 988.679 340.025 988.933 341.05C989.211 342.078 989.661 342.996 990.282 343.802C990.904 344.609 991.678 345.266 992.604 345.774C993.53 346.281 994.577 346.61 995.743 346.762C996.981 346.922 998.154 346.833 999.263 346.493C1000.37 346.129 1001.42 345.503 1002.41 344.614L1005.68 348.523C1004.3 349.821 1002.68 350.736 1000.82 351.269C998.985 351.805 996.972 351.931 994.782 351.647ZM1029.44 330.298L1035.22 331.049L1031.98 356.039L1026.2 355.289L1029.44 330.298ZM1014.84 353.815L1009.06 353.064L1012.3 328.074L1018.09 328.825L1014.84 353.815ZM1027.96 345.098L1015.75 343.514L1016.38 338.623L1028.59 340.207L1027.96 345.098ZM1091.23 349.753L1103.22 351.31L1102.62 355.951L1090.62 354.394L1091.23 349.753ZM1089.87 363.553L1084.09 362.803L1087.33 337.812L1106.22 340.264L1105.61 344.905L1092.51 343.204L1089.87 363.553ZM1106.89 365.762L1110.13 340.772L1115.92 341.522L1112.67 366.513L1106.89 365.762ZM1118.6 367.283L1121.85 342.292L1126.63 342.913L1139.04 362.82L1136.72 362.519L1139.05 344.526L1144.77 345.267L1141.52 370.258L1136.77 369.641L1124.33 349.73L1126.65 350.031L1124.31 368.024L1118.6 367.283ZM1159.34 373.006C1157.41 372.755 1155.65 372.213 1154.07 371.378C1152.51 370.522 1151.2 369.432 1150.14 368.108C1149.07 366.785 1148.3 365.293 1147.81 363.632C1147.35 361.975 1147.24 360.206 1147.49 358.326C1147.73 356.446 1148.29 354.763 1149.16 353.279C1150.05 351.798 1151.18 350.553 1152.55 349.544C1153.94 348.539 1155.49 347.833 1157.21 347.427C1158.94 346.998 1160.78 346.91 1162.73 347.163C1164.9 347.444 1166.8 348.078 1168.44 349.065C1170.1 350.032 1171.44 351.318 1172.44 352.925L1168.28 355.87C1167.55 354.783 1166.69 353.933 1165.71 353.321C1164.72 352.686 1163.61 352.287 1162.38 352.127C1161.21 351.975 1160.11 352.027 1159.09 352.281C1158.06 352.535 1157.15 352.973 1156.34 353.594C1155.53 354.216 1154.87 354.988 1154.33 355.911C1153.83 356.838 1153.5 357.896 1153.34 359.086C1153.19 360.276 1153.24 361.383 1153.49 362.409C1153.77 363.437 1154.22 364.355 1154.84 365.161C1155.46 365.968 1156.23 366.625 1157.16 367.132C1158.09 367.64 1159.13 367.969 1160.3 368.121C1161.54 368.281 1162.71 368.192 1163.82 367.852C1164.93 367.488 1165.98 366.862 1166.97 365.973L1170.24 369.882C1168.86 371.18 1167.24 372.095 1165.38 372.628C1163.54 373.164 1161.53 373.29 1159.34 373.006ZM1194 351.657L1199.78 352.408L1196.54 377.398L1190.75 376.648L1194 351.657ZM1179.4 375.174L1173.62 374.423L1176.86 349.433L1182.65 350.184L1179.4 375.174ZM1192.51 366.457L1180.3 364.872L1180.94 359.981L1193.15 361.566L1192.51 366.457ZM1248.64 384.162L1251.89 359.171L1262.71 360.575C1264.94 360.866 1266.82 361.485 1268.35 362.433C1269.87 363.357 1270.99 364.554 1271.69 366.025C1272.4 367.496 1272.63 369.172 1272.38 371.052C1272.14 372.908 1271.49 374.458 1270.44 375.7C1269.38 376.942 1267.99 377.827 1266.28 378.355C1264.57 378.859 1262.59 378.966 1260.36 378.675L1252.75 377.688L1255.66 375.416L1254.43 384.912L1248.64 384.162ZM1255.58 376.058L1253.36 372.976L1260.65 373.921C1262.43 374.153 1263.81 373.945 1264.79 373.298C1265.77 372.65 1266.35 371.649 1266.53 370.292C1266.71 368.911 1266.4 367.783 1265.62 366.907C1264.84 366.031 1263.56 365.478 1261.77 365.246L1254.49 364.301L1257.42 361.885L1255.58 376.058ZM1281.7 373.278L1293.73 374.839L1293.15 379.338L1281.12 377.776L1281.7 373.278ZM1280.79 383.615L1294.4 385.381L1293.79 390.022L1274.44 387.51L1277.69 362.52L1296.57 364.971L1295.97 369.612L1282.83 367.907L1280.79 383.615ZM1295.11 390.193L1309.49 366.648L1315.21 367.389L1323.14 393.83L1317.07 393.042L1310.79 369.793L1313.08 370.09L1301.04 390.962L1295.11 390.193ZM1301.38 385.56L1303.48 381.369L1316.33 383.037L1317.33 387.632L1301.38 385.56ZM1337.28 396.102C1335.36 395.852 1333.6 395.309 1332.01 394.474C1330.46 393.619 1329.14 392.529 1328.08 391.205C1327.02 389.881 1326.25 388.389 1325.76 386.729C1325.3 385.071 1325.19 383.303 1325.43 381.422C1325.68 379.542 1326.23 377.86 1327.1 376.376C1328 374.894 1329.13 373.649 1330.49 372.641C1331.88 371.635 1333.44 370.93 1335.16 370.524C1336.88 370.094 1338.72 370.006 1340.67 370.26C1342.84 370.541 1344.74 371.175 1346.38 372.162C1348.05 373.128 1349.38 374.415 1350.38 376.021L1346.22 378.966C1345.49 377.879 1344.64 377.03 1343.65 376.418C1342.67 375.782 1341.56 375.384 1340.32 375.223C1339.15 375.072 1338.06 375.123 1337.03 375.378C1336.01 375.632 1335.09 376.069 1334.29 376.691C1333.48 377.312 1332.81 378.084 1332.28 379.008C1331.77 379.934 1331.44 380.992 1331.29 382.182C1331.13 383.372 1331.18 384.48 1331.44 385.505C1331.71 386.534 1332.16 387.451 1332.78 388.258C1333.41 389.064 1334.18 389.722 1335.11 390.229C1336.03 390.736 1337.08 391.066 1338.24 391.217C1339.48 391.378 1340.66 391.288 1341.76 390.948C1342.88 390.584 1343.93 389.958 1344.91 389.07L1348.18 392.979C1346.8 394.276 1345.18 395.191 1343.32 395.724C1341.49 396.26 1339.47 396.386 1337.28 396.102ZM1371.94 374.754L1377.73 375.504L1374.48 400.495L1368.7 399.744L1371.94 374.754ZM1357.35 398.271L1351.56 397.52L1354.81 372.53L1360.59 373.28L1357.35 398.271ZM1370.46 389.554L1358.25 387.969L1358.88 383.078L1371.09 384.663L1370.46 389.554Z" fill="white"/>
<path d="M192.853 247.56C191.021 247.322 189.429 246.813 188.078 246.032C186.727 245.252 185.702 244.296 185.002 243.164C184.302 242.033 184.038 240.801 184.211 239.468C184.372 238.23 184.789 237.159 185.463 236.254C186.14 235.326 187.129 234.51 188.431 233.808C189.735 233.082 191.357 232.421 193.298 231.826C194.711 231.38 195.83 230.969 196.653 230.592C197.476 230.214 198.071 229.832 198.436 229.443C198.804 229.031 199.017 228.599 199.076 228.147C199.156 227.528 199.007 227.001 198.628 226.564C198.273 226.131 197.69 225.862 196.881 225.757C196.024 225.645 195.33 225.773 194.799 226.14C194.267 226.506 193.958 227.023 193.871 227.689C193.825 228.046 193.85 228.413 193.947 228.788C194.046 229.14 194.269 229.568 194.615 230.073C194.964 230.554 195.462 231.187 196.111 231.973L207.699 245.893L204.206 249.033L191.428 233.652C190.693 232.783 190.12 231.982 189.706 231.251C189.293 230.52 189.009 229.817 188.855 229.144C188.724 228.473 188.703 227.793 188.793 227.103C188.95 225.889 189.411 224.86 190.174 224.015C190.937 223.17 191.934 222.573 193.165 222.225C194.399 221.853 195.802 221.769 197.372 221.972C198.824 222.161 200.043 222.561 201.028 223.173C202.041 223.764 202.789 224.527 203.272 225.461C203.78 226.398 203.957 227.462 203.802 228.652C203.666 229.699 203.279 230.629 202.641 231.441C202.007 232.23 201.08 232.933 199.863 233.549C198.669 234.169 197.129 234.755 195.242 235.309C193.957 235.699 192.924 236.109 192.142 236.54C191.387 236.951 190.82 237.397 190.443 237.881C190.066 238.364 189.835 238.927 189.752 239.57C189.675 240.165 189.784 240.724 190.079 241.246C190.398 241.771 190.874 242.208 191.506 242.557C192.139 242.905 192.907 243.138 193.811 243.255C195.263 243.444 196.639 243.283 197.94 242.774C199.243 242.242 200.398 241.363 201.404 240.138C202.437 238.893 203.257 237.33 203.864 235.448L208.146 237.42C207.331 239.782 206.165 241.773 204.648 243.391C203.131 245.009 201.369 246.184 199.362 246.916C197.355 247.648 195.186 247.862 192.853 247.56ZM370.798 270.656C368.966 270.418 367.374 269.909 366.023 269.129C364.672 268.348 363.647 267.393 362.947 266.261C362.246 265.129 361.983 263.897 362.156 262.564C362.316 261.327 362.734 260.256 363.408 259.351C364.085 258.422 365.074 257.607 366.375 256.904C367.68 256.178 369.302 255.518 371.243 254.923C372.656 254.477 373.774 254.065 374.598 253.688C375.421 253.311 376.015 252.928 376.38 252.54C376.749 252.128 376.962 251.696 377.021 251.244C377.101 250.625 376.952 250.097 376.573 249.661C376.217 249.227 375.635 248.958 374.826 248.853C373.969 248.742 373.275 248.87 372.743 249.236C372.212 249.603 371.903 250.119 371.816 250.786C371.77 251.143 371.795 251.509 371.891 251.885C371.991 252.236 372.214 252.665 372.56 253.169C372.909 253.65 373.407 254.284 374.056 255.07L385.644 268.989L382.151 272.13L369.372 256.749C368.638 255.879 368.065 255.079 367.651 254.347C367.238 253.616 366.954 252.914 366.799 252.24C366.669 251.57 366.648 250.89 366.738 250.199C366.895 248.985 367.355 247.956 368.118 247.111C368.882 246.267 369.879 245.67 371.11 245.322C372.344 244.949 373.746 244.865 375.317 245.069C376.769 245.257 377.988 245.658 378.973 246.27C379.985 246.861 380.734 247.623 381.217 248.557C381.725 249.495 381.901 250.558 381.747 251.748C381.611 252.795 381.224 253.725 380.586 254.538C379.951 255.327 379.025 256.029 377.808 256.646C376.614 257.265 375.074 257.852 373.187 258.406C371.902 258.796 370.869 259.206 370.087 259.637C369.332 260.047 368.765 260.494 368.388 260.977C368.011 261.461 367.78 262.024 367.697 262.666C367.62 263.261 367.729 263.82 368.024 264.343C368.343 264.868 368.819 265.305 369.451 265.653C370.083 266.001 370.852 266.234 371.756 266.352C373.208 266.54 374.584 266.38 375.884 265.871C377.188 265.338 378.343 264.46 379.349 263.235C380.381 261.99 381.202 260.426 381.809 258.545L386.091 260.516C385.276 262.879 384.11 264.869 382.593 266.488C381.076 268.106 379.314 269.281 377.307 270.013C375.3 270.744 373.131 270.959 370.798 270.656ZM535.355 292.015C533.523 291.777 531.931 291.268 530.58 290.488C529.229 289.707 528.204 288.751 527.504 287.62C526.804 286.488 526.54 285.256 526.713 283.923C526.874 282.686 527.291 281.614 527.965 280.71C528.642 279.781 529.631 278.966 530.933 278.263C532.237 277.537 533.859 276.877 535.8 276.281C537.213 275.836 538.332 275.424 539.155 275.047C539.978 274.67 540.573 274.287 540.938 273.899C541.306 273.487 541.519 273.055 541.578 272.602C541.658 271.984 541.509 271.456 541.13 271.02C540.775 270.586 540.192 270.317 539.383 270.212C538.526 270.101 537.832 270.229 537.301 270.595C536.769 270.962 536.46 271.478 536.373 272.145C536.327 272.502 536.352 272.868 536.449 273.244C536.548 273.595 536.771 274.024 537.117 274.528C537.466 275.009 537.964 275.643 538.613 276.429L550.201 290.348L546.708 293.489L533.93 278.108C533.195 277.238 532.622 276.438 532.208 275.706C531.795 274.975 531.511 274.273 531.356 273.599C531.226 272.929 531.205 272.248 531.295 271.558C531.452 270.344 531.913 269.315 532.676 268.47C533.439 267.625 534.436 267.029 535.667 266.68C536.901 266.308 538.304 266.224 539.874 266.428C541.326 266.616 542.545 267.016 543.53 267.628C544.543 268.22 545.291 268.982 545.774 269.916C546.282 270.853 546.459 271.917 546.304 273.107C546.168 274.154 545.781 275.084 545.143 275.897C544.509 276.686 543.582 277.388 542.365 278.005C541.171 278.624 539.631 279.211 537.744 279.765C536.459 280.154 535.426 280.565 534.644 280.996C533.889 281.406 533.322 281.853 532.945 282.336C532.568 282.82 532.337 283.383 532.254 284.025C532.177 284.62 532.286 285.179 532.581 285.701C532.9 286.227 533.376 286.664 534.008 287.012C534.641 287.36 535.409 287.593 536.313 287.711C537.765 287.899 539.141 287.739 540.442 287.23C541.745 286.697 542.9 285.819 543.906 284.594C544.939 283.348 545.759 281.785 546.366 279.904L550.648 281.875C549.833 284.238 548.667 286.228 547.15 287.847C545.633 289.465 543.871 290.64 541.864 291.371C539.857 292.103 537.688 292.318 535.355 292.015ZM713.3 315.112C711.468 314.874 709.876 314.365 708.525 313.584C707.174 312.804 706.149 311.848 705.449 310.716C704.748 309.585 704.485 308.353 704.658 307.02C704.818 305.782 705.236 304.711 705.91 303.806C706.587 302.878 707.576 302.062 708.877 301.36C710.182 300.634 711.804 299.973 713.745 299.378C715.158 298.932 716.276 298.521 717.1 298.143C717.923 297.766 718.517 297.384 718.882 296.995C719.251 296.583 719.464 296.151 719.523 295.699C719.603 295.08 719.454 294.553 719.075 294.116C718.719 293.683 718.137 293.414 717.328 293.309C716.471 293.197 715.777 293.325 715.245 293.692C714.714 294.058 714.405 294.575 714.318 295.241C714.272 295.598 714.297 295.965 714.393 296.34C714.493 296.692 714.716 297.12 715.062 297.625C715.411 298.106 715.909 298.739 716.557 299.525L728.146 313.445L724.653 316.585L711.874 301.204C711.14 300.335 710.567 299.534 710.153 298.803C709.74 298.072 709.456 297.369 709.301 296.696C709.171 296.025 709.15 295.345 709.24 294.655C709.397 293.441 709.857 292.412 710.62 291.567C711.384 290.722 712.381 290.125 713.612 289.777C714.846 289.405 716.248 289.32 717.819 289.524C719.271 289.713 720.49 290.113 721.475 290.725C722.487 291.316 723.236 292.079 723.719 293.013C724.227 293.95 724.403 295.014 724.249 296.204C724.113 297.251 723.726 298.181 723.088 298.993C722.453 299.782 721.527 300.485 720.31 301.101C719.116 301.721 717.576 302.307 715.689 302.861C714.404 303.251 713.371 303.661 712.589 304.092C711.834 304.503 711.267 304.949 710.89 305.433C710.513 305.916 710.282 306.479 710.199 307.122C710.122 307.717 710.231 308.276 710.526 308.798C710.845 309.323 711.321 309.76 711.953 310.109C712.585 310.457 713.354 310.69 714.258 310.807C715.71 310.996 717.086 310.835 718.386 310.326C719.69 309.794 720.845 308.915 721.851 307.69C722.883 306.445 723.703 304.882 724.311 303L728.593 304.972C727.778 307.334 726.612 309.325 725.095 310.943C723.578 312.561 721.816 313.736 719.809 314.468C717.802 315.2 715.633 315.414 713.3 315.112ZM877.857 336.47C876.025 336.233 874.433 335.723 873.082 334.943C871.731 334.163 870.706 333.207 870.006 332.075C869.306 330.944 869.042 329.712 869.215 328.379C869.376 327.141 869.793 326.07 870.467 325.165C871.144 324.237 872.133 323.421 873.435 322.719C874.739 321.993 876.361 321.332 878.302 320.737C879.715 320.291 880.834 319.88 881.657 319.502C882.48 319.125 883.075 318.742 883.44 318.354C883.808 317.942 884.021 317.51 884.08 317.058C884.16 316.439 884.011 315.911 883.632 315.475C883.277 315.042 882.694 314.773 881.885 314.668C881.028 314.556 880.334 314.684 879.803 315.051C879.271 315.417 878.962 315.934 878.875 316.6C878.829 316.957 878.854 317.323 878.951 317.699C879.05 318.051 879.273 318.479 879.619 318.984C879.968 319.465 880.466 320.098 881.115 320.884L892.703 334.803L889.21 337.944L876.432 322.563C875.697 321.693 875.124 320.893 874.71 320.162C874.297 319.43 874.013 318.728 873.858 318.055C873.728 317.384 873.707 316.704 873.797 316.014C873.954 314.8 874.415 313.77 875.178 312.926C875.941 312.081 876.938 311.484 878.169 311.136C879.403 310.764 880.806 310.679 882.376 310.883C883.828 311.072 885.047 311.472 886.032 312.084C887.045 312.675 887.793 313.438 888.276 314.372C888.784 315.309 888.961 316.372 888.806 317.562C888.67 318.61 888.283 319.54 887.645 320.352C887.011 321.141 886.084 321.844 884.867 322.46C883.673 323.08 882.133 323.666 880.246 324.22C878.961 324.61 877.928 325.02 877.146 325.451C876.391 325.861 875.824 326.308 875.447 326.792C875.07 327.275 874.839 327.838 874.756 328.481C874.679 329.076 874.788 329.634 875.083 330.157C875.402 330.682 875.878 331.119 876.51 331.467C877.143 331.816 877.911 332.049 878.815 332.166C880.267 332.354 881.643 332.194 882.944 331.685C884.247 331.153 885.402 330.274 886.408 329.049C887.441 327.804 888.261 326.24 888.868 324.359L893.15 326.33C892.335 328.693 891.169 330.684 889.652 332.302C888.135 333.92 886.373 335.095 884.366 335.827C882.359 336.559 880.19 336.773 877.857 336.47ZM1055.8 359.567C1053.97 359.329 1052.38 358.82 1051.03 358.04C1049.68 357.259 1048.65 356.303 1047.95 355.172C1047.25 354.04 1046.99 352.808 1047.16 351.475C1047.32 350.238 1047.74 349.166 1048.41 348.262C1049.09 347.333 1050.08 346.518 1051.38 345.815C1052.68 345.089 1054.31 344.428 1056.25 343.833C1057.66 343.388 1058.78 342.976 1059.6 342.599C1060.43 342.222 1061.02 341.839 1061.38 341.451C1061.75 341.039 1061.97 340.607 1062.02 340.154C1062.1 339.536 1061.96 339.008 1061.58 338.572C1061.22 338.138 1060.64 337.869 1059.83 337.764C1058.97 337.653 1058.28 337.781 1057.75 338.147C1057.22 338.514 1056.91 339.03 1056.82 339.697C1056.77 340.054 1056.8 340.42 1056.9 340.796C1056.99 341.147 1057.22 341.576 1057.56 342.08C1057.91 342.561 1058.41 343.195 1059.06 343.981L1070.65 357.9L1067.15 361.041L1054.38 345.66C1053.64 344.79 1053.07 343.99 1052.66 343.258C1052.24 342.527 1051.96 341.825 1051.8 341.151C1051.67 340.481 1051.65 339.8 1051.74 339.11C1051.9 337.896 1052.36 336.867 1053.12 336.022C1053.89 335.177 1054.88 334.581 1056.11 334.232C1057.35 333.86 1058.75 333.776 1060.32 333.98C1061.77 334.168 1062.99 334.568 1063.98 335.18C1064.99 335.772 1065.74 336.534 1066.22 337.468C1066.73 338.405 1066.91 339.469 1066.75 340.659C1066.62 341.706 1066.23 342.636 1065.59 343.449C1064.96 344.238 1064.03 344.94 1062.81 345.557C1061.62 346.176 1060.08 346.763 1058.19 347.317C1056.91 347.706 1055.87 348.117 1055.09 348.548C1054.34 348.958 1053.77 349.405 1053.39 349.888C1053.01 350.372 1052.78 350.935 1052.7 351.577C1052.62 352.172 1052.73 352.731 1053.03 353.253C1053.35 353.779 1053.82 354.216 1054.45 354.564C1055.09 354.912 1055.86 355.145 1056.76 355.262C1058.21 355.451 1059.59 355.291 1060.89 354.782C1062.19 354.249 1063.35 353.37 1064.35 352.146C1065.39 350.9 1066.21 349.337 1066.81 347.455L1071.09 349.427C1070.28 351.79 1069.11 353.78 1067.6 355.398C1066.08 357.017 1064.32 358.192 1062.31 358.923C1060.3 359.655 1058.13 359.87 1055.8 359.567ZM1220.36 380.926C1218.53 380.688 1216.93 380.179 1215.58 379.398C1214.23 378.618 1213.21 377.662 1212.51 376.531C1211.81 375.399 1211.54 374.167 1211.72 372.834C1211.88 371.596 1212.29 370.525 1212.97 369.621C1213.65 368.692 1214.64 367.877 1215.94 367.174C1217.24 366.448 1218.86 365.787 1220.8 365.192C1222.22 364.746 1223.34 364.335 1224.16 363.958C1224.98 363.581 1225.58 363.198 1225.94 362.81C1226.31 362.398 1226.52 361.965 1226.58 361.513C1226.66 360.894 1226.51 360.367 1226.13 359.93C1225.78 359.497 1225.2 359.228 1224.39 359.123C1223.53 359.012 1222.84 359.139 1222.3 359.506C1221.77 359.873 1221.46 360.389 1221.38 361.056C1221.33 361.413 1221.36 361.779 1221.45 362.154C1221.55 362.506 1221.77 362.934 1222.12 363.439C1222.47 363.92 1222.97 364.553 1223.62 365.339L1235.21 379.259L1231.71 382.399L1218.93 367.019C1218.2 366.149 1217.63 365.348 1217.21 364.617C1216.8 363.886 1216.52 363.183 1216.36 362.51C1216.23 361.84 1216.21 361.159 1216.3 360.469C1216.46 359.255 1216.92 358.226 1217.68 357.381C1218.44 356.536 1219.44 355.94 1220.67 355.591C1221.91 355.219 1223.31 355.135 1224.88 355.339C1226.33 355.527 1227.55 355.927 1228.53 356.539C1229.55 357.13 1230.29 357.893 1230.78 358.827C1231.29 359.764 1231.46 360.828 1231.31 362.018C1231.17 363.065 1230.79 363.995 1230.15 364.808C1229.51 365.596 1228.59 366.299 1227.37 366.916C1226.18 367.535 1224.63 368.122 1222.75 368.675C1221.46 369.065 1220.43 369.476 1219.65 369.907C1218.89 370.317 1218.33 370.764 1217.95 371.247C1217.57 371.731 1217.34 372.294 1217.26 372.936C1217.18 373.531 1217.29 374.09 1217.58 374.612C1217.9 375.138 1218.38 375.574 1219.01 375.923C1219.64 376.271 1220.41 376.504 1221.32 376.621C1222.77 376.81 1224.15 376.65 1225.45 376.141C1226.75 375.608 1227.9 374.729 1228.91 373.505C1229.94 372.259 1230.76 370.696 1231.37 368.814L1235.65 370.786C1234.84 373.149 1233.67 375.139 1232.15 376.757C1230.64 378.376 1228.88 379.551 1226.87 380.282C1224.86 381.014 1222.69 381.229 1220.36 380.926ZM1398.3 404.022C1396.47 403.784 1394.88 403.275 1393.53 402.495C1392.18 401.715 1391.15 400.759 1390.45 399.627C1389.75 398.496 1389.49 397.263 1389.66 395.931C1389.82 394.693 1390.24 393.622 1390.91 392.717C1391.59 391.789 1392.58 390.973 1393.88 390.271C1395.19 389.545 1396.81 388.884 1398.75 388.289C1400.16 387.843 1401.28 387.431 1402.1 387.054C1402.93 386.677 1403.52 386.294 1403.89 385.906C1404.25 385.494 1404.47 385.062 1404.53 384.61C1404.61 383.991 1404.46 383.463 1404.08 383.027C1403.72 382.594 1403.14 382.324 1402.33 382.219C1401.48 382.108 1400.78 382.236 1400.25 382.603C1399.72 382.969 1399.41 383.486 1399.32 384.152C1399.28 384.509 1399.3 384.875 1399.4 385.251C1399.5 385.603 1399.72 386.031 1400.07 386.536C1400.41 387.017 1400.91 387.65 1401.56 388.436L1413.15 402.355L1409.66 405.496L1396.88 390.115C1396.14 389.245 1395.57 388.445 1395.16 387.714C1394.74 386.982 1394.46 386.28 1394.31 385.606C1394.17 384.936 1394.15 384.256 1394.24 383.566C1394.4 382.352 1394.86 381.322 1395.62 380.478C1396.39 379.633 1397.38 379.036 1398.62 378.688C1399.85 378.315 1401.25 378.231 1402.82 378.435C1404.28 378.624 1405.49 379.024 1406.48 379.636C1407.49 380.227 1408.24 380.99 1408.72 381.924C1409.23 382.861 1409.41 383.924 1409.25 385.114C1409.12 386.162 1408.73 387.092 1408.09 387.904C1407.46 388.693 1406.53 389.396 1405.31 390.012C1404.12 390.632 1402.58 391.218 1400.69 391.772C1399.41 392.162 1398.37 392.572 1397.59 393.003C1396.84 393.413 1396.27 393.86 1395.89 394.344C1395.52 394.827 1395.29 395.39 1395.2 396.033C1395.13 396.628 1395.23 397.186 1395.53 397.709C1395.85 398.234 1396.32 398.671 1396.96 399.019C1397.59 399.368 1398.36 399.6 1399.26 399.718C1400.71 399.906 1402.09 399.746 1403.39 399.237C1404.69 398.705 1405.85 397.826 1406.85 396.601C1407.89 395.356 1408.71 393.792 1409.31 391.911L1413.6 393.882C1412.78 396.245 1411.62 398.236 1410.1 399.854C1408.58 401.472 1406.82 402.647 1404.81 403.379C1402.81 404.111 1400.64 404.325 1398.3 404.022Z" fill="black"/>
<rect x="0.627808" y="394.841" width="1485" height="51" transform="rotate(-7.63294 0.627808 394.841)" fill="url(#paint1_linear_43_1689)"/>
<path d="M34.0103 412.68L45.9992 411.074L46.6205 415.713L34.6316 417.319L34.0103 412.68ZM36.2787 426.36L30.4983 427.134L27.1524 402.158L46.0278 399.629L46.6492 404.268L33.5541 406.022L36.2787 426.36ZM53.2869 424.082L49.941 399.105L55.7214 398.33L59.0673 423.307L53.2869 424.082ZM64.9949 422.513L61.6489 397.536L66.4302 396.896L83.5757 412.905L81.2564 413.216L78.8473 395.232L84.5563 394.468L87.9022 419.445L83.1566 420.08L65.9755 404.076L68.2948 403.765L70.7039 421.748L64.9949 422.513ZM105.822 417.48C103.895 417.738 102.058 417.669 100.31 417.274C98.5827 416.851 97.0344 416.139 95.6651 415.136C94.2958 414.133 93.161 412.892 92.2609 411.415C91.3845 409.934 90.8205 408.254 90.5687 406.375C90.317 404.496 90.419 402.726 90.8747 401.067C91.3542 399.405 92.1225 397.91 93.1795 396.581C94.2603 395.25 95.58 394.165 97.1385 393.327C98.6938 392.465 100.447 391.903 102.397 391.642C104.562 391.352 106.563 391.471 108.402 392C110.261 392.501 111.882 393.398 113.266 394.69L110.014 398.612C109.027 397.752 107.979 397.154 106.868 396.818C105.755 396.459 104.579 396.362 103.342 396.528C102.177 396.684 101.132 397.017 100.208 397.529C99.2832 398.04 98.512 398.7 97.894 399.509C97.276 400.319 96.8301 401.238 96.5564 402.267C96.3064 403.294 96.2611 404.401 96.4204 405.591C96.5798 406.78 96.9151 407.837 97.4263 408.761C97.9614 409.683 98.6335 410.452 99.4427 411.07C100.252 411.688 101.17 412.122 102.196 412.372C103.222 412.622 104.318 412.669 105.484 412.513C106.721 412.347 107.831 411.956 108.814 411.34C109.793 410.701 110.644 409.824 111.367 408.71L115.537 411.638C114.542 413.249 113.215 414.552 111.557 415.549C109.922 416.543 108.011 417.187 105.822 417.48ZM133.761 387.876L139.542 387.102L142.888 412.079L137.107 412.853L133.761 387.876ZM125.761 414.373L119.98 415.147L116.634 390.17L122.415 389.396L125.761 414.373ZM136.164 402.555L123.961 404.19L123.306 399.301L135.509 397.667L136.164 402.555ZM194.967 405.102L191.621 380.125L202.432 378.677C204.668 378.377 206.644 378.488 208.361 379.009C210.074 379.506 211.461 380.373 212.523 381.611C213.585 382.849 214.242 384.408 214.493 386.287C214.742 388.142 214.517 389.807 213.818 391.281C213.12 392.754 212.011 393.968 210.493 394.922C208.971 395.853 207.092 396.468 204.856 396.767L197.255 397.785L199.476 394.836L200.747 404.328L194.967 405.102ZM199.562 395.479L196.624 393.075L203.903 392.1C205.688 391.861 206.969 391.302 207.747 390.423C208.525 389.544 208.823 388.427 208.642 387.071C208.457 385.691 207.873 384.68 206.891 384.036C205.909 383.393 204.526 383.191 202.742 383.43L195.463 384.405L197.664 381.313L199.562 395.479ZM224.07 386.021L236.095 384.41L236.697 388.906L224.673 390.517L224.07 386.021ZM225.875 396.24L239.47 394.419L240.091 399.057L220.752 401.648L217.406 376.671L236.281 374.142L236.903 378.781L223.772 380.54L225.875 396.24ZM241.408 398.881L249.194 372.412L254.903 371.648L269.418 395.128L263.352 395.941L251.263 375.114L253.547 374.808L247.331 398.087L241.408 398.881ZM246.257 392.783L247.203 388.189L260.049 386.468L262.207 390.646L246.257 392.783ZM283.671 393.655C281.744 393.913 279.907 393.844 278.159 393.449C276.432 393.027 274.883 392.314 273.514 391.311C272.145 390.308 271.01 389.067 270.11 387.59C269.233 386.109 268.669 384.429 268.418 382.55C268.166 380.671 268.268 378.901 268.723 377.242C269.203 375.58 269.971 374.085 271.028 372.757C272.109 371.425 273.429 370.34 274.987 369.502C276.543 368.64 278.295 368.078 280.246 367.817C282.411 367.527 284.412 367.646 286.251 368.175C288.11 368.676 289.731 369.573 291.115 370.865L287.863 374.787C286.876 373.927 285.827 373.329 284.717 372.993C283.603 372.634 282.428 372.537 281.191 372.703C280.026 372.859 278.981 373.193 278.056 373.704C277.132 374.215 276.361 374.875 275.743 375.684C275.125 376.494 274.679 377.413 274.405 378.443C274.155 379.469 274.11 380.577 274.269 381.766C274.429 382.955 274.764 384.012 275.275 384.937C275.81 385.858 276.482 386.627 277.291 387.245C278.101 387.863 279.018 388.297 280.045 388.547C281.071 388.797 282.167 388.844 283.333 388.688C284.569 388.522 285.679 388.131 286.662 387.515C287.642 386.876 288.493 385.999 289.216 384.885L293.385 387.813C292.39 389.424 291.064 390.727 289.405 391.724C287.771 392.718 285.859 393.362 283.671 393.655ZM311.61 364.051L317.39 363.277L320.736 388.254L314.956 389.028L311.61 364.051ZM303.609 390.548L297.829 391.322L294.483 366.346L300.263 365.571L303.609 390.548ZM314.012 378.73L301.809 380.365L301.155 375.477L313.358 373.842L314.012 378.73ZM376.327 366.823L388.316 365.217L388.938 369.855L376.949 371.461L376.327 366.823ZM378.596 380.503L372.815 381.277L369.469 356.3L388.345 353.772L388.966 358.41L375.871 360.164L378.596 380.503ZM395.604 378.224L392.258 353.247L398.038 352.473L401.384 377.45L395.604 378.224ZM407.312 376.656L403.966 351.679L408.747 351.039L425.893 367.048L423.573 367.359L421.164 349.375L426.873 348.61L430.219 373.587L425.474 374.223L408.293 358.219L410.612 357.908L413.021 375.891L407.312 376.656ZM448.139 371.623C446.213 371.881 444.375 371.812 442.627 371.417C440.9 370.994 439.351 370.281 437.982 369.278C436.613 368.275 435.478 367.035 434.578 365.557C433.702 364.077 433.138 362.397 432.886 360.517C432.634 358.638 432.736 356.869 433.192 355.21C433.671 353.547 434.44 352.052 435.497 350.724C436.577 349.393 437.897 348.308 439.456 347.47C441.011 346.608 442.764 346.046 444.714 345.785C446.879 345.495 448.881 345.614 450.719 346.142C452.578 346.644 454.2 347.541 455.583 348.832L452.331 352.755C451.344 351.894 450.296 351.296 449.185 350.961C448.072 350.601 446.896 350.505 445.659 350.67C444.494 350.826 443.449 351.16 442.525 351.671C441.6 352.183 440.829 352.843 440.211 353.652C439.593 354.461 439.147 355.381 438.873 356.41C438.624 357.436 438.578 358.544 438.738 359.734C438.897 360.923 439.232 361.98 439.743 362.904C440.278 363.825 440.951 364.595 441.76 365.213C442.569 365.831 443.487 366.265 444.513 366.515C445.539 366.765 446.635 366.812 447.801 366.655C449.038 366.49 450.148 366.099 451.131 365.483C452.11 364.843 452.962 363.966 453.684 362.853L457.854 365.781C456.859 367.391 455.532 368.695 453.874 369.692C452.239 370.686 450.328 371.329 448.139 371.623ZM476.078 342.019L481.859 341.244L485.205 366.221L479.424 366.996L476.078 342.019ZM468.078 368.516L462.297 369.29L458.951 344.313L464.732 343.539L468.078 368.516ZM478.481 356.698L466.278 358.333L465.623 353.444L477.826 351.809L478.481 356.698ZM537.284 359.245L533.938 334.268L544.749 332.82C546.985 332.52 548.961 332.631 550.678 333.151C552.391 333.648 553.778 334.516 554.84 335.754C555.902 336.992 556.559 338.55 556.81 340.429C557.059 342.285 556.834 343.95 556.136 345.423C555.437 346.897 554.328 348.111 552.81 349.065C551.288 349.995 549.409 350.61 547.173 350.91L539.573 351.928L541.793 348.979L543.064 358.47L537.284 359.245ZM541.879 349.621L538.942 347.218L546.221 346.243C548.005 346.004 549.286 345.445 550.064 344.566C550.842 343.687 551.14 342.569 550.959 341.213C550.774 339.834 550.19 338.822 549.208 338.179C548.226 337.536 546.843 337.333 545.059 337.572L537.78 338.548L539.981 335.456L541.879 349.621ZM566.388 340.164L578.412 338.553L579.014 343.049L566.99 344.659L566.388 340.164ZM568.192 350.382L581.787 348.561L582.408 353.2L563.069 355.791L559.723 330.814L578.598 328.285L579.22 332.924L566.089 334.683L568.192 350.382ZM583.725 353.023L591.511 326.555L597.22 325.79L611.735 349.271L605.669 350.084L593.58 329.256L595.864 328.95L589.648 352.23L583.725 353.023ZM588.574 346.926L589.521 342.331L602.366 340.61L604.524 344.789L588.574 346.926ZM625.988 347.798C624.061 348.056 622.224 347.987 620.476 347.592C618.749 347.169 617.2 346.457 615.831 345.454C614.462 344.45 613.327 343.21 612.427 341.733C611.55 340.252 610.986 338.572 610.735 336.693C610.483 334.813 610.585 333.044 611.041 331.385C611.52 329.723 612.288 328.227 613.345 326.899C614.426 325.568 615.746 324.483 617.304 323.645C618.86 322.783 620.613 322.221 622.563 321.96C624.728 321.67 626.729 321.789 628.568 322.318C630.427 322.819 632.048 323.716 633.432 325.007L630.18 328.93C629.193 328.069 628.144 327.471 627.034 327.136C625.92 326.777 624.745 326.68 623.508 326.845C622.343 327.002 621.298 327.335 620.373 327.846C619.449 328.358 618.678 329.018 618.06 329.827C617.442 330.636 616.996 331.556 616.722 332.585C616.472 333.611 616.427 334.719 616.586 335.909C616.746 337.098 617.081 338.155 617.592 339.079C618.127 340 618.799 340.77 619.609 341.388C620.418 342.006 621.336 342.44 622.362 342.69C623.388 342.94 624.484 342.987 625.65 342.831C626.887 342.665 627.997 342.274 628.979 341.658C629.959 341.018 630.81 340.142 631.533 339.028L635.703 341.956C634.708 343.566 633.381 344.87 631.723 345.867C630.088 346.861 628.177 347.504 625.988 347.798ZM653.927 318.194L659.708 317.42L663.054 342.396L657.273 343.171L653.927 318.194ZM645.926 344.691L640.146 345.465L636.8 320.488L642.581 319.714L645.926 344.691ZM656.329 332.873L644.126 334.508L643.472 329.619L655.675 327.985L656.329 332.873ZM718.644 320.966L730.633 319.36L731.255 323.998L719.266 325.604L718.644 320.966ZM720.913 334.646L715.133 335.42L711.787 310.443L730.662 307.914L731.283 312.553L718.188 314.307L720.913 334.646ZM737.921 332.367L734.575 307.39L740.356 306.616L743.702 331.593L737.921 332.367ZM749.629 330.799L746.283 305.822L751.064 305.181L768.21 321.191L765.891 321.501L763.481 303.518L769.19 302.753L772.536 327.73L767.791 328.366L750.61 312.361L752.929 312.051L755.338 330.034L749.629 330.799ZM790.456 325.765C788.53 326.023 786.692 325.955 784.944 325.559C783.217 325.137 781.669 324.424 780.299 323.421C778.93 322.418 777.795 321.178 776.895 319.7C776.019 318.219 775.455 316.539 775.203 314.66C774.951 312.781 775.053 311.012 775.509 309.353C775.988 307.69 776.757 306.195 777.814 304.867C778.895 303.536 780.214 302.451 781.773 301.612C783.328 300.75 785.081 300.189 787.031 299.927C789.196 299.637 791.198 299.757 793.036 300.285C794.895 300.787 796.517 301.683 797.9 302.975L794.648 306.898C793.661 306.037 792.613 305.439 791.502 305.103C790.389 304.744 789.213 304.647 787.977 304.813C786.811 304.969 785.766 305.303 784.842 305.814C783.917 306.325 783.146 306.986 782.528 307.795C781.91 308.604 781.464 309.523 781.191 310.553C780.941 311.579 780.895 312.687 781.055 313.876C781.214 315.066 781.549 316.123 782.061 317.047C782.596 317.968 783.268 318.737 784.077 319.356C784.886 319.974 785.804 320.408 786.83 320.657C787.856 320.907 788.952 320.954 790.118 320.798C791.355 320.632 792.465 320.242 793.448 319.626C794.427 318.986 795.279 318.109 796.001 316.995L800.171 319.924C799.176 321.534 797.849 322.838 796.191 323.835C794.556 324.829 792.645 325.472 790.456 325.765ZM818.396 296.161L824.176 295.387L827.522 320.364L821.741 321.138L818.396 296.161ZM810.395 322.658L804.614 323.433L801.269 298.456L807.049 297.682L810.395 322.658ZM820.798 310.84L808.595 312.475L807.94 307.587L820.143 305.952L820.798 310.84ZM879.601 313.387L876.255 288.411L887.066 286.962C889.302 286.663 891.279 286.773 892.995 287.294C894.708 287.791 896.095 288.658 897.157 289.896C898.219 291.134 898.876 292.693 899.128 294.572C899.376 296.428 899.151 298.092 898.453 299.566C897.754 301.04 896.645 302.254 895.127 303.208C893.605 304.138 891.726 304.753 889.49 305.053L881.89 306.071L884.11 303.122L885.381 312.613L879.601 313.387ZM884.196 303.764L881.259 301.361L888.538 300.386C890.322 300.147 891.603 299.588 892.381 298.709C893.159 297.829 893.457 296.712 893.276 295.356C893.091 293.976 892.508 292.965 891.525 292.322C890.543 291.678 889.16 291.476 887.376 291.715L880.097 292.69L882.298 289.599L884.196 303.764ZM908.705 294.306L920.729 292.695L921.331 297.191L909.307 298.802L908.705 294.306ZM910.509 304.525L924.104 302.704L924.725 307.343L905.386 309.933L902.04 284.956L920.916 282.428L921.537 287.066L908.406 288.825L910.509 304.525ZM926.042 307.166L933.829 280.698L939.538 279.933L954.052 303.414L947.986 304.226L935.898 283.399L938.181 283.093L931.965 306.373L926.042 307.166ZM930.891 301.068L931.838 296.474L944.683 294.753L946.841 298.932L930.891 301.068ZM968.305 301.94C966.378 302.198 964.541 302.13 962.793 301.734C961.066 301.312 959.517 300.599 958.148 299.596C956.779 298.593 955.644 297.353 954.744 295.875C953.868 294.395 953.303 292.715 953.052 290.835C952.8 288.956 952.902 287.187 953.358 285.528C953.837 283.865 954.605 282.37 955.663 281.042C956.743 279.711 958.063 278.626 959.621 277.787C961.177 276.925 962.93 276.364 964.88 276.102C967.045 275.812 969.046 275.932 970.885 276.46C972.744 276.962 974.365 277.858 975.749 279.15L972.497 283.073C971.51 282.212 970.461 281.614 969.351 281.279C968.238 280.919 967.062 280.822 965.825 280.988C964.66 281.144 963.615 281.478 962.69 281.989C961.766 282.5 960.995 283.161 960.377 283.97C959.759 284.779 959.313 285.698 959.039 286.728C958.789 287.754 958.744 288.862 958.903 290.051C959.063 291.241 959.398 292.298 959.909 293.222C960.444 294.143 961.116 294.913 961.926 295.531C962.735 296.149 963.653 296.583 964.679 296.833C965.705 297.083 966.801 297.129 967.967 296.973C969.204 296.808 970.314 296.417 971.297 295.801C972.276 295.161 973.127 294.284 973.85 293.17L978.02 296.099C977.025 297.709 975.698 299.013 974.04 300.01C972.405 301.004 970.494 301.647 968.305 301.94ZM996.244 272.337L1002.02 271.562L1005.37 296.539L999.59 297.313L996.244 272.337ZM988.244 298.834L982.463 299.608L979.117 274.631L984.898 273.857L988.244 298.834ZM998.647 287.016L986.444 288.65L985.789 283.762L997.992 282.127L998.647 287.016ZM1060.96 275.108L1072.95 273.502L1073.57 278.141L1061.58 279.747L1060.96 275.108ZM1063.23 288.788L1057.45 289.563L1054.1 264.586L1072.98 262.057L1073.6 266.696L1060.51 268.45L1063.23 288.788ZM1080.24 286.51L1076.89 261.533L1082.67 260.759L1086.02 285.735L1080.24 286.51ZM1091.95 284.941L1088.6 259.964L1093.38 259.324L1110.53 275.333L1108.21 275.644L1105.8 257.661L1111.51 256.896L1114.85 281.873L1110.11 282.508L1092.93 266.504L1095.25 266.193L1097.66 284.177L1091.95 284.941ZM1132.77 279.908C1130.85 280.166 1129.01 280.097 1127.26 279.702C1125.53 279.28 1123.99 278.567 1122.62 277.564C1121.25 276.561 1120.11 275.32 1119.21 273.843C1118.34 272.362 1117.77 270.682 1117.52 268.803C1117.27 266.924 1117.37 265.154 1117.83 263.495C1118.31 261.833 1119.07 260.338 1120.13 259.01C1121.21 257.678 1122.53 256.593 1124.09 255.755C1125.65 254.893 1127.4 254.331 1129.35 254.07C1131.51 253.78 1133.51 253.899 1135.35 254.428C1137.21 254.929 1138.83 255.826 1140.22 257.118L1136.97 261.04C1135.98 260.18 1134.93 259.582 1133.82 259.246C1132.71 258.887 1131.53 258.79 1130.29 258.956C1129.13 259.112 1128.08 259.446 1127.16 259.957C1126.23 260.468 1125.46 261.128 1124.85 261.937C1124.23 262.747 1123.78 263.666 1123.51 264.696C1123.26 265.722 1123.21 266.83 1123.37 268.019C1123.53 269.208 1123.87 270.265 1124.38 271.19C1124.91 272.111 1125.58 272.88 1126.39 273.498C1127.2 274.116 1128.12 274.55 1129.15 274.8C1130.17 275.05 1131.27 275.097 1132.44 274.941C1133.67 274.775 1134.78 274.384 1135.76 273.768C1136.74 273.129 1137.6 272.252 1138.32 271.138L1142.49 274.066C1141.49 275.677 1140.17 276.98 1138.51 277.977C1136.87 278.971 1134.96 279.615 1132.77 279.908ZM1160.71 250.304L1166.49 249.53L1169.84 274.507L1164.06 275.281L1160.71 250.304ZM1152.71 276.801L1146.93 277.575L1143.59 252.599L1149.37 251.824L1152.71 276.801ZM1163.11 264.983L1150.91 266.618L1150.26 261.73L1162.46 260.095L1163.11 264.983ZM1221.92 267.53L1218.57 242.553L1229.38 241.105C1231.62 240.805 1233.6 240.916 1235.31 241.437C1237.03 241.934 1238.41 242.801 1239.47 244.039C1240.54 245.277 1241.19 246.836 1241.44 248.715C1241.69 250.57 1241.47 252.235 1240.77 253.709C1240.07 255.183 1238.96 256.396 1237.44 257.351C1235.92 258.281 1234.04 258.896 1231.81 259.195L1224.21 260.213L1226.43 257.265L1227.7 266.756L1221.92 267.53ZM1226.51 257.907L1223.58 255.504L1230.85 254.528C1232.64 254.289 1233.92 253.73 1234.7 252.851C1235.48 251.972 1235.77 250.855 1235.59 249.499C1235.41 248.119 1234.82 247.108 1233.84 246.464C1232.86 245.821 1231.48 245.619 1229.69 245.858L1222.41 246.833L1224.62 243.741L1226.51 257.907ZM1251.02 248.449L1263.05 246.838L1263.65 251.334L1251.62 252.945L1251.02 248.449ZM1252.83 258.668L1266.42 256.847L1267.04 261.485L1247.7 264.076L1244.36 239.099L1263.23 236.57L1263.85 241.209L1250.72 242.968L1252.83 258.668ZM1268.36 261.309L1276.15 234.841L1281.85 234.076L1296.37 257.557L1290.3 258.369L1278.21 237.542L1280.5 237.236L1274.28 260.515L1268.36 261.309ZM1273.21 255.211L1274.15 250.617L1287 248.896L1289.16 253.074L1273.21 255.211ZM1310.62 256.083C1308.7 256.341 1306.86 256.273 1305.11 255.877C1303.38 255.455 1301.83 254.742 1300.47 253.739C1299.1 252.736 1297.96 251.496 1297.06 250.018C1296.18 248.537 1295.62 246.857 1295.37 244.978C1295.12 243.099 1295.22 241.33 1295.67 239.67C1296.15 238.008 1296.92 236.513 1297.98 235.185C1299.06 233.853 1300.38 232.769 1301.94 231.93C1303.49 231.068 1305.25 230.506 1307.2 230.245C1309.36 229.955 1311.36 230.074 1313.2 230.603C1315.06 231.105 1316.68 232.001 1318.07 233.293L1314.81 237.215C1313.83 236.355 1312.78 235.757 1311.67 235.421C1310.55 235.062 1309.38 234.965 1308.14 235.131C1306.98 235.287 1305.93 235.621 1305.01 236.132C1304.08 236.643 1303.31 237.303 1302.69 238.113C1302.08 238.922 1301.63 239.841 1301.36 240.871C1301.11 241.897 1301.06 243.005 1301.22 244.194C1301.38 245.383 1301.72 246.44 1302.23 247.365C1302.76 248.286 1303.43 249.055 1304.24 249.673C1305.05 250.291 1305.97 250.725 1307 250.975C1308.02 251.225 1309.12 251.272 1310.28 251.116C1311.52 250.95 1312.63 250.559 1313.61 249.944C1314.59 249.304 1315.44 248.427 1316.17 247.313L1320.34 250.241C1319.34 251.852 1318.02 253.156 1316.36 254.153C1314.72 255.146 1312.81 255.79 1310.62 256.083ZM1338.56 226.479L1344.34 225.705L1347.69 250.682L1341.91 251.456L1338.56 226.479ZM1330.56 252.976L1324.78 253.751L1321.43 228.774L1327.21 227.999L1330.56 252.976ZM1340.96 241.158L1328.76 242.793L1328.11 237.905L1340.31 236.27L1340.96 241.158Z" fill="white"/>
<path d="M166.809 409.31C164.978 409.555 163.308 409.476 161.801 409.073C160.295 408.669 159.056 408.012 158.087 407.1C157.117 406.189 156.543 405.067 156.365 403.735C156.199 402.498 156.324 401.356 156.741 400.307C157.154 399.235 157.898 398.191 158.973 397.175C160.044 396.135 161.44 395.077 163.16 393.999C164.409 393.202 165.383 392.515 166.08 391.937C166.778 391.359 167.252 390.836 167.504 390.366C167.753 389.873 167.847 389.4 167.786 388.948C167.704 388.329 167.423 387.859 166.943 387.535C166.488 387.209 165.856 387.1 165.047 387.208C164.191 387.323 163.553 387.626 163.135 388.118C162.717 388.61 162.552 389.189 162.641 389.855C162.689 390.212 162.808 390.559 162.999 390.897C163.186 391.211 163.512 391.567 163.977 391.964C164.439 392.338 165.085 392.821 165.915 393.412L180.716 403.851L178.156 407.79L161.827 396.248C160.892 395.598 160.131 394.974 159.542 394.375C158.953 393.775 158.497 393.171 158.173 392.56C157.873 391.947 157.677 391.295 157.584 390.605C157.422 389.392 157.599 388.279 158.117 387.265C158.635 386.251 159.444 385.416 160.542 384.761C161.638 384.081 162.971 383.636 164.54 383.426C165.992 383.232 167.272 383.302 168.383 383.638C169.514 383.946 170.434 384.489 171.143 385.266C171.876 386.039 172.323 387.021 172.482 388.21C172.622 389.257 172.49 390.255 172.084 391.205C171.676 392.132 170.963 393.05 169.947 393.961C168.955 394.869 167.619 395.835 165.94 396.859C164.801 397.569 163.909 398.233 163.265 398.852C162.642 399.444 162.211 400.022 161.972 400.587C161.733 401.152 161.657 401.755 161.743 402.397C161.822 402.992 162.072 403.503 162.493 403.931C162.937 404.356 163.51 404.655 164.211 404.827C164.912 405 165.715 405.025 166.619 404.904C168.07 404.71 169.357 404.198 170.481 403.37C171.602 402.517 172.489 401.369 173.143 399.926C173.818 398.455 174.205 396.733 174.304 394.758L178.95 395.552C178.776 398.045 178.166 400.27 177.12 402.226C176.075 404.182 174.677 405.774 172.929 407.001C171.18 408.228 169.141 408.998 166.809 409.31ZM344.658 385.485C342.826 385.73 341.157 385.651 339.65 385.248C338.143 384.844 336.905 384.187 335.936 383.276C334.966 382.364 334.392 381.243 334.213 379.91C334.048 378.673 334.173 377.531 334.59 376.482C335.003 375.41 335.747 374.366 336.822 373.35C337.893 372.311 339.289 371.252 341.009 370.174C342.258 369.377 343.231 368.69 343.929 368.112C344.626 367.534 345.101 367.011 345.353 366.541C345.602 366.048 345.696 365.575 345.635 365.123C345.552 364.505 345.271 364.034 344.792 363.71C344.337 363.384 343.705 363.275 342.896 363.383C342.04 363.498 341.402 363.801 340.984 364.293C340.565 364.785 340.401 365.364 340.49 366.03C340.538 366.387 340.657 366.734 340.848 367.072C341.035 367.386 341.361 367.742 341.826 368.139C342.288 368.513 342.934 368.996 343.763 369.587L358.564 380.026L356.005 383.965L339.676 372.423C338.741 371.773 337.979 371.149 337.391 370.55C336.802 369.951 336.346 369.346 336.022 368.735C335.722 368.122 335.525 367.47 335.433 366.78C335.27 365.567 335.448 364.454 335.966 363.44C336.484 362.426 337.292 361.591 338.391 360.936C339.487 360.256 340.819 359.811 342.389 359.601C343.84 359.407 345.121 359.477 346.231 359.813C347.362 360.121 348.283 360.664 348.992 361.441C349.725 362.214 350.171 363.196 350.331 364.385C350.471 365.432 350.338 366.43 349.933 367.38C349.524 368.307 348.812 369.226 347.796 370.136C346.804 371.044 345.468 372.01 343.789 373.034C342.649 373.744 341.758 374.408 341.114 375.027C340.491 375.619 340.06 376.197 339.821 376.762C339.582 377.327 339.505 377.93 339.591 378.573C339.671 379.167 339.921 379.679 340.342 380.106C340.786 380.531 341.359 380.83 342.06 381.002C342.761 381.175 343.564 381.2 344.467 381.079C345.918 380.885 347.206 380.373 348.33 379.545C349.451 378.693 350.338 377.545 350.992 376.101C351.667 374.63 352.054 372.908 352.152 370.933L356.799 371.727C356.624 374.22 356.014 376.445 354.969 378.401C353.923 380.357 352.526 381.949 350.778 383.176C349.029 384.403 346.989 385.173 344.658 385.485ZM509.126 363.453C507.295 363.698 505.626 363.619 504.119 363.215C502.612 362.812 501.373 362.155 500.404 361.243C499.434 360.332 498.86 359.21 498.682 357.878C498.516 356.641 498.641 355.498 499.058 354.45C499.471 353.377 500.215 352.333 501.29 351.318C502.361 350.278 503.757 349.219 505.477 348.142C506.726 347.345 507.7 346.657 508.397 346.08C509.095 345.502 509.569 344.978 509.821 344.509C510.07 344.015 510.164 343.543 510.104 343.091C510.021 342.472 509.74 342.001 509.26 341.678C508.805 341.352 508.173 341.243 507.364 341.351C506.508 341.466 505.871 341.769 505.452 342.261C505.034 342.753 504.869 343.332 504.958 343.998C505.006 344.355 505.125 344.702 505.316 345.04C505.503 345.353 505.829 345.709 506.294 346.107C506.756 346.481 507.402 346.964 508.232 347.555L523.033 357.994L520.473 361.933L504.144 350.39C503.209 349.741 502.448 349.116 501.859 348.517C501.27 347.918 500.814 347.313 500.49 346.703C500.19 346.089 499.994 345.438 499.901 344.748C499.739 343.535 499.916 342.421 500.434 341.407C500.952 340.394 501.761 339.559 502.859 338.903C503.955 338.224 505.288 337.779 506.858 337.569C508.309 337.374 509.589 337.445 510.7 337.78C511.831 338.089 512.751 338.632 513.46 339.408C514.193 340.182 514.64 341.163 514.799 342.353C514.939 343.399 514.807 344.398 514.401 345.348C513.993 346.274 513.28 347.193 512.264 348.104C511.272 349.012 509.936 349.978 508.258 351.002C507.118 351.711 506.226 352.376 505.582 352.995C504.96 353.587 504.529 354.165 504.289 354.73C504.05 355.294 503.974 355.898 504.06 356.54C504.139 357.135 504.39 357.646 504.81 358.074C505.254 358.499 505.827 358.797 506.528 358.97C507.229 359.142 508.032 359.168 508.936 359.047C510.387 358.853 511.674 358.341 512.798 357.512C513.919 356.66 514.806 355.512 515.461 354.068C516.135 352.598 516.522 350.875 516.621 348.901L521.267 349.695C521.093 352.188 520.483 354.413 519.437 356.369C518.392 358.325 516.995 359.917 515.246 361.144C513.497 362.371 511.458 363.14 509.126 363.453ZM686.975 339.628C685.144 339.873 683.474 339.794 681.967 339.391C680.46 338.987 679.222 338.33 678.253 337.418C677.283 336.507 676.709 335.385 676.531 334.053C676.365 332.816 676.49 331.673 676.907 330.625C677.32 329.552 678.064 328.508 679.139 327.493C680.21 326.453 681.606 325.395 683.326 324.317C684.575 323.52 685.549 322.832 686.246 322.255C686.944 321.677 687.418 321.153 687.67 320.684C687.919 320.19 688.013 319.718 687.952 319.266C687.869 318.647 687.588 318.176 687.109 317.853C686.654 317.527 686.022 317.418 685.213 317.526C684.357 317.641 683.719 317.944 683.301 318.436C682.883 318.928 682.718 319.507 682.807 320.173C682.855 320.53 682.974 320.877 683.165 321.215C683.352 321.529 683.678 321.884 684.143 322.282C684.605 322.656 685.251 323.139 686.08 323.73L700.882 334.169L698.322 338.108L681.993 326.566C681.058 325.916 680.297 325.292 679.708 324.692C679.119 324.093 678.663 323.489 678.339 322.878C678.039 322.265 677.842 321.613 677.75 320.923C677.587 319.71 677.765 318.596 678.283 317.583C678.801 316.569 679.61 315.734 680.708 315.078C681.804 314.399 683.136 313.954 684.706 313.744C686.157 313.549 687.438 313.62 688.549 313.956C689.679 314.264 690.6 314.807 691.309 315.583C692.042 316.357 692.489 317.338 692.648 318.528C692.788 319.574 692.655 320.573 692.25 321.523C691.841 322.45 691.129 323.368 690.113 324.279C689.121 325.187 687.785 326.153 686.106 327.177C684.966 327.886 684.075 328.551 683.431 329.17C682.808 329.762 682.377 330.34 682.138 330.905C681.899 331.469 681.823 332.073 681.909 332.715C681.988 333.31 682.238 333.821 682.659 334.249C683.103 334.674 683.676 334.973 684.377 335.145C685.078 335.317 685.881 335.343 686.785 335.222C688.236 335.028 689.523 334.516 690.647 333.688C691.768 332.835 692.655 331.687 693.309 330.244C693.984 328.773 694.371 327.05 694.469 325.076L699.116 325.87C698.942 328.363 698.331 330.588 697.286 332.544C696.24 334.5 694.843 336.092 693.095 337.319C691.346 338.546 689.306 339.315 686.975 339.628ZM851.444 317.595C849.612 317.841 847.943 317.762 846.436 317.358C844.929 316.955 843.691 316.297 842.721 315.386C841.751 314.475 841.177 313.353 840.999 312.021C840.833 310.784 840.959 309.641 841.375 308.592C841.788 307.52 842.532 306.476 843.607 305.46C844.678 304.421 846.074 303.362 847.794 302.284C849.044 301.487 850.017 300.8 850.714 300.222C851.412 299.645 851.887 299.121 852.138 298.651C852.387 298.158 852.481 297.685 852.421 297.233C852.338 296.615 852.057 296.144 851.578 295.821C851.122 295.494 850.49 295.385 849.681 295.494C848.825 295.608 848.188 295.912 847.769 296.404C847.351 296.895 847.186 297.474 847.276 298.14C847.323 298.497 847.442 298.845 847.633 299.182C847.82 299.496 848.146 299.852 848.611 300.25C849.073 300.624 849.719 301.106 850.549 301.697L865.35 312.137L862.79 316.075L846.461 304.533C845.527 303.884 844.765 303.259 844.176 302.66C843.587 302.061 843.131 301.456 842.807 300.846C842.507 300.232 842.311 299.58 842.218 298.891C842.056 297.677 842.234 296.564 842.752 295.55C843.27 294.536 844.078 293.702 845.177 293.046C846.272 292.367 847.605 291.922 849.175 291.711C850.626 291.517 851.906 291.588 853.017 291.923C854.148 292.232 855.068 292.774 855.777 293.551C856.511 294.324 856.957 295.306 857.116 296.495C857.256 297.542 857.124 298.54 856.718 299.491C856.31 300.417 855.597 301.336 854.581 302.247C853.589 303.155 852.254 304.12 850.575 305.144C849.435 305.854 848.543 306.518 847.9 307.137C847.277 307.729 846.846 308.308 846.607 308.872C846.367 309.437 846.291 310.041 846.377 310.683C846.457 311.278 846.707 311.789 847.127 312.217C847.572 312.642 848.144 312.94 848.845 313.113C849.546 313.285 850.349 313.311 851.253 313.19C852.704 312.995 853.991 312.484 855.115 311.655C856.236 310.803 857.124 309.655 857.778 308.211C858.452 306.741 858.839 305.018 858.938 303.043L863.584 303.837C863.41 306.331 862.8 308.555 861.754 310.512C860.709 312.468 859.312 314.059 857.563 315.286C855.815 316.513 853.775 317.283 851.444 317.595ZM1029.29 293.77C1027.46 294.016 1025.79 293.937 1024.28 293.533C1022.78 293.13 1021.54 292.472 1020.57 291.561C1019.6 290.65 1019.03 289.528 1018.85 288.196C1018.68 286.959 1018.81 285.816 1019.22 284.768C1019.64 283.695 1020.38 282.651 1021.46 281.635C1022.53 280.596 1023.92 279.537 1025.64 278.459C1026.89 277.662 1027.87 276.975 1028.56 276.397C1029.26 275.82 1029.74 275.296 1029.99 274.826C1030.24 274.333 1030.33 273.86 1030.27 273.408C1030.19 272.79 1029.91 272.319 1029.43 271.996C1028.97 271.669 1028.34 271.56 1027.53 271.669C1026.67 271.783 1026.04 272.087 1025.62 272.579C1025.2 273.071 1025.04 273.65 1025.12 274.316C1025.17 274.672 1025.29 275.02 1025.48 275.357C1025.67 275.671 1026 276.027 1026.46 276.425C1026.92 276.799 1027.57 277.281 1028.4 277.872L1043.2 288.312L1040.64 292.25L1024.31 280.708C1023.38 280.059 1022.61 279.434 1022.02 278.835C1021.44 278.236 1020.98 277.631 1020.66 277.021C1020.36 276.407 1020.16 275.756 1020.07 275.066C1019.9 273.853 1020.08 272.739 1020.6 271.725C1021.12 270.712 1021.93 269.877 1023.03 269.221C1024.12 268.542 1025.45 268.097 1027.02 267.886C1028.47 267.692 1029.76 267.763 1030.87 268.098C1032 268.407 1032.92 268.949 1033.63 269.726C1034.36 270.5 1034.81 271.481 1034.96 272.67C1035.11 273.717 1034.97 274.716 1034.57 275.666C1034.16 276.592 1033.45 277.511 1032.43 278.422C1031.44 279.33 1030.1 280.296 1028.42 281.32C1027.28 282.029 1026.39 282.693 1025.75 283.312C1025.13 283.904 1024.69 284.483 1024.46 285.047C1024.22 285.612 1024.14 286.216 1024.23 286.858C1024.31 287.453 1024.56 287.964 1024.98 288.392C1025.42 288.817 1025.99 289.115 1026.69 289.288C1027.4 289.46 1028.2 289.486 1029.1 289.365C1030.55 289.17 1031.84 288.659 1032.96 287.83C1034.08 286.978 1034.97 285.83 1035.63 284.386C1036.3 282.916 1036.69 281.193 1036.79 279.219L1041.43 280.013C1041.26 282.506 1040.65 284.731 1039.6 286.687C1038.56 288.643 1037.16 290.234 1035.41 291.461C1033.66 292.688 1031.62 293.458 1029.29 293.77ZM1193.76 271.738C1191.93 271.983 1190.26 271.904 1188.75 271.501C1187.25 271.097 1186.01 270.44 1185.04 269.529C1184.07 268.617 1183.49 267.496 1183.32 266.163C1183.15 264.926 1183.28 263.784 1183.69 262.735C1184.11 261.663 1184.85 260.619 1185.92 259.603C1187 258.564 1188.39 257.505 1190.11 256.427C1191.36 255.63 1192.33 254.943 1193.03 254.365C1193.73 253.787 1194.2 253.264 1194.46 252.794C1194.7 252.301 1194.8 251.828 1194.74 251.376C1194.65 250.758 1194.37 250.287 1193.89 249.963C1193.44 249.637 1192.81 249.528 1192 249.636C1191.14 249.751 1190.5 250.054 1190.09 250.546C1189.67 251.038 1189.5 251.617 1189.59 252.283C1189.64 252.64 1189.76 252.987 1189.95 253.325C1190.14 253.639 1190.46 253.995 1190.93 254.392C1191.39 254.766 1192.04 255.249 1192.87 255.84L1207.67 266.279L1205.11 270.218L1188.78 258.676C1187.84 258.026 1187.08 257.402 1186.49 256.803C1185.9 256.204 1185.45 255.599 1185.12 254.988C1184.82 254.375 1184.63 253.723 1184.54 253.033C1184.37 251.82 1184.55 250.707 1185.07 249.693C1185.59 248.679 1186.39 247.844 1187.49 247.189C1188.59 246.509 1189.92 246.064 1191.49 245.854C1192.94 245.66 1194.22 245.73 1195.33 246.066C1196.46 246.374 1197.39 246.917 1198.09 247.694C1198.83 248.467 1199.27 249.449 1199.43 250.638C1199.57 251.685 1199.44 252.683 1199.04 253.633C1198.63 254.56 1197.91 255.479 1196.9 256.389C1195.91 257.297 1194.57 258.263 1192.89 259.287C1191.75 259.997 1190.86 260.661 1190.22 261.28C1189.59 261.872 1189.16 262.45 1188.92 263.015C1188.68 263.58 1188.61 264.183 1188.69 264.826C1188.77 265.42 1189.02 265.932 1189.44 266.359C1189.89 266.784 1190.46 267.083 1191.16 267.255C1191.86 267.428 1192.67 267.453 1193.57 267.332C1195.02 267.138 1196.31 266.626 1197.43 265.798C1198.55 264.946 1199.44 263.798 1200.09 262.354C1200.77 260.883 1201.16 259.161 1201.25 257.186L1205.9 257.98C1205.73 260.473 1205.12 262.698 1204.07 264.654C1203.03 266.61 1201.63 268.202 1199.88 269.429C1198.13 270.656 1196.09 271.426 1193.76 271.738ZM1371.61 247.913C1369.78 248.159 1368.11 248.079 1366.6 247.676C1365.09 247.272 1363.86 246.615 1362.89 245.704C1361.92 244.792 1361.34 243.671 1361.16 242.339C1361 241.102 1361.12 239.959 1361.54 238.91C1361.95 237.838 1362.7 236.794 1363.77 235.778C1364.84 234.739 1366.24 233.68 1367.96 232.602C1369.21 231.805 1370.18 231.118 1370.88 230.54C1371.58 229.962 1372.05 229.439 1372.3 228.969C1372.55 228.476 1372.65 228.003 1372.59 227.551C1372.5 226.933 1372.22 226.462 1371.74 226.139C1371.29 225.812 1370.66 225.703 1369.85 225.811C1368.99 225.926 1368.35 226.229 1367.94 226.721C1367.52 227.213 1367.35 227.792 1367.44 228.458C1367.49 228.815 1367.61 229.162 1367.8 229.5C1367.99 229.814 1368.31 230.17 1368.78 230.568C1369.24 230.942 1369.88 231.424 1370.71 232.015L1385.52 242.454L1382.96 246.393L1366.63 234.851C1365.69 234.201 1364.93 233.577 1364.34 232.978C1363.75 232.379 1363.3 231.774 1362.97 231.164C1362.67 230.55 1362.48 229.898 1362.38 229.208C1362.22 227.995 1362.4 226.882 1362.92 225.868C1363.44 224.854 1364.24 224.02 1365.34 223.364C1366.44 222.684 1367.77 222.24 1369.34 222.029C1370.79 221.835 1372.07 221.905 1373.18 222.241C1374.31 222.55 1375.23 223.092 1375.94 223.869C1376.68 224.642 1377.12 225.624 1377.28 226.813C1377.42 227.86 1377.29 228.858 1376.88 229.808C1376.48 230.735 1375.76 231.654 1374.75 232.565C1373.76 233.472 1372.42 234.438 1370.74 235.462C1369.6 236.172 1368.71 236.836 1368.07 237.455C1367.44 238.047 1367.01 238.625 1366.77 239.19C1366.53 239.755 1366.46 240.358 1366.54 241.001C1366.62 241.595 1366.87 242.107 1367.29 242.535C1367.74 242.959 1368.31 243.258 1369.01 243.43C1369.71 243.603 1370.51 243.629 1371.42 243.507C1372.87 243.313 1374.16 242.802 1375.28 241.973C1376.4 241.121 1377.29 239.973 1377.94 238.529C1378.62 237.058 1379 235.336 1379.1 233.361L1383.75 234.155C1383.58 236.649 1382.97 238.873 1381.92 240.829C1380.87 242.786 1379.48 244.377 1377.73 245.604C1375.98 246.831 1373.94 247.601 1371.61 247.913Z" fill="black"/>
<defs>
<linearGradient id="paint0_linear_43_1689" x1="778.604" y1="190.503" x2="778.604" y2="241.503" gradientUnits="userSpaceOnUse">
<stop stop-color="#D02D24" stop-opacity="0.6"/>
<stop offset="1" stop-color="#A0106C" stop-opacity="0.4"/>
</linearGradient>
<linearGradient id="paint1_linear_43_1689" x1="-57.9472" y1="406.943" x2="18.2493" y2="614.874" gradientUnits="userSpaceOnUse">
<stop offset="0.0208333" stop-color="#F02542" stop-opacity="0.3"/>
<stop offset="1" stop-color="#A0106C"/>
</linearGradient>
</defs>
</svg>
